<svg xmlns="http://www.w3.org/2000/svg" xmlns:xlink="http://www.w3.org/1999/xlink" style="height: 30px; width: 80px;" viewBox="0 0 80 30">
    <path d=" M 0 0 L 80 0 L 80 1 L 0 1 L 0 0 L 0 0 Z  M 0 29 L 80 29 L 80 30 L 0 30 L 0 29 L 0 29 Z  M 0 27 L 0 3 L 5.317 3 C 7.826 3 9.596 3.513 10.627 4.54 C 11.658 5.567 12.174 7.339 12.174 9.857 L 12.174 19.286 C 12.174 21.92 11.65 23.864 10.6 25.118 C 9.551 26.373 7.781 27 5.29 27 L 0 27 L 0 27 Z  M 3.429 24.429 L 5.317 24.429 C 5.879 24.429 6.362 24.377 6.763 24.275 C 7.165 24.172 7.491 23.984 7.741 23.712 C 7.991 23.44 8.187 23.181 8.33 22.935 C 8.473 22.69 8.574 22.308 8.632 21.79 C 8.69 21.272 8.723 20.846 8.732 20.511 C 8.741 20.176 8.746 19.656 8.746 18.951 L 8.746 10.714 C 8.746 10.277 8.743 9.929 8.739 9.67 C 8.734 9.411 8.721 9.105 8.699 8.752 C 8.676 8.4 8.643 8.121 8.598 7.915 C 8.554 7.71 8.491 7.48 8.411 7.225 C 8.33 6.971 8.23 6.772 8.109 6.629 C 7.989 6.487 7.842 6.337 7.667 6.181 C 7.493 6.025 7.292 5.908 7.065 5.833 C 6.837 5.757 6.571 5.694 6.268 5.645 C 5.964 5.596 5.625 5.571 5.25 5.571 L 3.429 5.571 L 3.429 24.429 L 3.429 24.429 Z  M 18.603 13.286 L 19.46 13.286 C 20.888 13.286 21.96 12.984 22.674 12.382 C 23.388 11.779 23.746 10.795 23.746 9.429 C 23.746 8.062 23.388 7.078 22.674 6.475 C 21.96 5.873 20.888 5.571 19.46 5.571 L 18.603 5.571 L 18.603 13.286 L 18.603 13.286 Z  M 15.174 27 L 15.174 3 L 19.46 3 C 22.013 3 23.937 3.496 25.232 4.487 C 26.527 5.478 27.174 7.125 27.174 9.429 C 27.174 10.857 26.92 12.054 26.411 13.018 C 25.902 13.982 25.156 14.643 24.174 15 L 28.031 27 L 24.629 27 L 21.174 15.857 L 18.603 15.857 L 18.603 27 L 15.174 27 L 15.174 27 Z  M 30.174 27 L 30.174 3 L 33.603 3 L 33.603 27 L 30.174 27 L 30.174 27 Z  M 37.272 27 L 37.272 3 L 40.701 3 L 40.701 24.429 L 46.701 24.429 L 46.701 27 L 37.272 27 L 37.272 27 Z  M 48.295 27 L 48.295 3 L 51.723 3 L 51.723 24.429 L 57.723 24.429 L 57.723 27 L 48.295 27 L 48.295 27 Z  M 73 27 L 73 24.429 C 73.741 24.429 74.319 24.388 74.734 24.308 C 75.15 24.228 75.491 24.056 75.759 23.792 C 76.027 23.529 76.205 23.185 76.295 22.761 C 76.384 22.337 76.429 21.75 76.429 21 L 76.429 3 L 79.857 3 L 79.857 21 C 79.857 22.089 79.786 22.989 79.643 23.699 C 79.5 24.408 79.239 25.022 78.859 25.54 C 78.48 26.058 77.953 26.431 77.279 26.658 C 76.605 26.886 75.75 27 74.714 27 L 73 27 L 73 27 Z " fill-rule="evenodd" fill="rgb(15,36,52)"/>
    <path d=" M 62.104 17.445 L 64.716 17.445 L 64.716 10.249 L 62.104 17.445 L 62.104 17.445 Z  M 58 21.177 L 58 17.419 L 63.863 3 L 69.314 3 L 69.314 17.445 L 71.552 17.445 L 71.552 21.177 L 69.314 21.177 L 69.314 27 L 64.716 27 L 64.716 21.177 L 58 21.177 L 58 21.177 Z " fill-rule="evenodd" fill="rgb(0,127,255)"/>
</svg>