<svg style="width: 51px; height: 64px;" viewBox="0 0 51 64" version="1.1">
    <g id="Demo" stroke="none" stroke-width="1" fill="none" fill-rule="evenodd">
        <g id="1.1.2.D4J.Extension.2" transform="translate(-970.000000, -107.000000)">
            <g id="logo_v.1.1" transform="translate(970.000000, 107.000000)">
                <path d="M28.3160343,9.09494702e-13 L30.9780834,9.09494702e-13 L26.3529412,4.62514218 L26.3529412,1.96309312 L28.3160343,9.08384479e-13 Z M33.0219166,9.09494702e-13 L35.6839657,9.09494702e-13 L26.3529412,9.33102453 L26.3529412,6.66897547 L33.0219166,9.08606523e-13 Z M37.6470588,0.0807401766 L37.6470588,2.74278924 L26.3529412,14.0369069 L26.3529412,11.3748578 L37.6470588,0.0807401766 Z M37.6470588,4.78662253 L37.6470588,7.44867159 L26.3529412,18.7427892 L26.3529412,16.0807402 L37.6470588,4.78662253 Z M37.6470588,9.49250488 L37.6470588,12.1545539 L26.3529412,23.4486716 L26.3529412,20.7866225 L37.6470588,9.49250488 Z M37.6470588,14.1983872 L37.6470588,16.8604363 L26.3529412,28.1545539 L26.3529412,25.4925049 L37.6470588,14.1983872 Z M37.6470588,18.9042696 L37.6470588,21.5663186 L26.3529412,32.8604363 L26.3529412,30.1983872 L37.6470588,18.9042696 Z M37.6470588,23.6101519 L37.6470588,26.272201 L26.3529412,37.5663186 L26.3529412,34.9042696 L37.6470588,23.6101519 Z M37.6470588,28.3160343 L37.6470588,30.9780834 L26.3529412,42.272201 L26.3529412,39.6101519 L37.6470588,28.3160343 Z M37.6470588,33.0219166 L37.6470588,35.6839657 L27.2537476,46.077277 L26.3529412,45.1764706 L26.3529412,44.3160343 L37.6470588,33.0219166 Z M37.6470588,37.727799 L37.6470588,40.3898481 L29.6066887,48.4302181 L28.2756642,47.0991936 L37.6470588,37.727799 Z M37.6470588,42.4336814 L37.6470588,45.0957304 L31.9596299,50.7831593 L30.6286054,49.4521348 L37.6470588,42.4336814 Z" id="Combined-Shape" fill="#909EA9"></path>
                <path d="M50.8235294,45.1764706 C50.8235294,55.5724188 42.3959482,64 32,64 C21.6040518,64 13.1764706,55.5724188 13.1764706,45.1764706 L20.7058824,45.1764706 C20.7058824,51.4140395 25.7624311,56.4705882 32,56.4705882 C38.2375689,56.4705882 43.2941176,51.4140395 43.2941176,45.1764706 L43.2941176,15.0588235 L24.4705882,15.0588235 L24.4705882,7.52941176 L50.8235294,7.52941176 L50.8235294,15.0588235 L50.8235294,45.1764706 Z" id="Combined-Shape-Copy-14" fill="#007FFF"></path>
                <path d="M21.5882353,33.3529412 L21.5882353,29.7058824 L19.7058824,29.7058824 L19.7058824,8.52941176 L13.7320261,8.52941176 L1,28.9915966 L1,33.3529412 L14.1764706,33.3529412 L14.1764706,40.4117647 L19.7058824,40.4117647 L19.7058824,33.3529412 L21.5882353,33.3529412 Z M14.1764706,29.7058824 L3.8574944,29.7058824 L14.1764706,12.937546 L14.1764706,29.7058824 Z" id="4-copy-13" stroke="#0F2434" stroke-width="2" fill="#0F2434" fill-rule="nonzero"></path>
            </g>
        </g>
    </g>
</svg>