<svg style="width: 14px; height: 16px;" viewBox="0 0 14 16" version="1.1">
    <g id="Demo" stroke="none" stroke-width="1" fill="none" fill-rule="evenodd">
        <g id="1.2.2.D4J.Extension.Default.Option.2" transform="translate(-1140.000000, -53.000000)">
            <g id="logo_v.1.1-copy-4" transform="translate(1140.000000, 53.000000)">
                <path d="M7.43194975,4.97379915e-13 L8.09746201,4.97379915e-13 L6.94117647,1.15628554 L6.94117647,0.490773279 L7.43194975,4.9715787e-13 Z M8.60842034,4.97379915e-13 L9.2739326,4.97379915e-13 L6.94117647,2.33275613 L6.94117647,1.66724387 L8.60842034,4.9715787e-13 Z M9.76470588,0.0201850441 L9.76470588,0.685697309 L6.94117647,3.50922672 L6.94117647,2.84371446 L9.76470588,0.0201850441 Z M9.76470588,1.19665563 L9.76470588,1.8621679 L6.94117647,4.68569731 L6.94117647,4.02018504 L9.76470588,1.19665563 Z M9.76470588,2.37312622 L9.76470588,3.03863849 L6.94117647,5.8621679 L6.94117647,5.19665563 L9.76470588,2.37312622 Z M9.76470588,3.54959681 L9.76470588,4.21510907 L6.94117647,7.03863849 L6.94117647,6.37312622 L9.76470588,3.54959681 Z M9.76470588,4.7260674 L9.76470588,5.39157966 L6.94117647,8.21510907 L6.94117647,7.54959681 L9.76470588,4.7260674 Z M9.76470588,5.90253799 L9.76470588,6.56805025 L6.94117647,9.39157966 L6.94117647,8.7260674 L9.76470588,5.90253799 Z M9.76470588,7.07900857 L9.76470588,7.74452084 L6.94117647,10.5680502 L6.94117647,9.90253799 L9.76470588,7.07900857 Z M9.76470588,8.25547916 L9.76470588,8.92099143 L7.16637807,11.5193192 L6.94117647,11.2941176 L6.94117647,11.0790086 L9.76470588,8.25547916 Z M9.76470588,9.43194975 L9.76470588,10.097462 L7.75461336,12.1075545 L7.42185723,11.7747984 L9.76470588,9.43194975 Z M9.76470588,10.6084203 L9.76470588,11.2739326 L8.34284865,12.6957898 L8.01009252,12.3630337 L9.76470588,10.6084203 Z" id="Combined-Shape" fill="#909EA9"></path>
                <path d="M13.0588235,11.2941176 C13.0588235,13.8931047 10.9519282,16 8.35294118,16 C5.75395412,16 3.64705882,13.8931047 3.64705882,11.2941176 L5.52941176,11.2941176 C5.52941176,12.8535099 6.79354894,14.1176471 8.35294118,14.1176471 C9.91233341,14.1176471 11.1764706,12.8535099 11.1764706,11.2941176 L11.1764706,3.76470588 L6.47058824,3.76470588 L6.47058824,1.88235294 L13.0588235,1.88235294 L13.0588235,3.76470588 L13.0588235,11.2941176 Z" id="Combined-Shape-Copy-14" fill="#007FFF"></path>
                <path d="M5,8.17647059 L5,7.58823529 L6,7.58823529 L6,8.17647059 L5,8.17647059 Z M4.64705882,8.17647059 L4.52941176,8.17647059 L4.52941176,7.58823529 L4.58823529,7.58823529 L4.64705882,7.58823529 L4.64705882,8.17647059 Z M4.52941176,7.58823529 L4.52941176,2.88235294 L4.17248781,2.88235294 L1,7.48757718 L1,7.58823529 L4.52941176,7.58823529 Z M0.930657744,7.58823529 L0.823507601,7.74377582 L0.871897285,7.58823529 L0.930657744,7.58823529 Z M4.64705882,9.35294118 L4.64705882,10.2352941 L4.58823529,10.2941176 L4.52941176,10.2352941 L4.52941176,9.35294118 L4.64705882,9.35294118 Z M3.36107726,6.17647059 L2.64705882,6.17647059 L2.64705882,7.17647059 L2.84631045,6.97721896 L3.36107726,6.17647059 Z M4.64705882,8.17647059 L-0.302253734,8.17647059 L4.64705882,0.477539944 L4.64705882,8.17647059 Z" id="4-copy-13" stroke="#0F2434" stroke-width="2" fill="#0F2434" fill-rule="nonzero"></path>
            </g>
        </g>
    </g>
</svg>