<svg xmlns="http://www.w3.org/2000/svg" viewBox="0 0 32 32">
    <path d="M10.3 7.4l-4.4 4.4C2.4 15.3 2 21 5 25l.2.3-3.8 3.9a1.1 1.1 0 1 0 1.6 1.6l3.9-3.8.3.2c4 3 9.6 2.5 13-1l4.5-4.4.9 1A1.1 1.1 0 0 0 27 21l-2.7-2.7.4-.3.1-.1 5.8-5.8a1.1 1.1 0 1 0-1.6-1.6l-5.8 5.8-.4.5-7.7-7.7.4-.3.1-.1 5.8-5.8a1.1 1.1 0 1 0-1.6-1.6L14 7.1l-.4.5L11 4.9a1.1 1.1 0 0 0-1.6 1.6l.9 1zm-1.6-.2a2.1 2.1 0 0 1 3-3l2 2L19.1.6a2.1 2.1 0 1 1 3 3l-5.6 5.6 6.2 6.2 5.6-5.6a2.1 2.1 0 0 1 3 3l-5.6 5.6 2 2a2.1 2.1 0 0 1-3 3l-.2-.3-3.7 3.7a11 11 0 0 1-14 1.3l-3.3 3.3a2.1 2.1 0 1 1-3-3L4 25a11 11 0 0 1 1.3-14L9 7.4l-.2-.2z" />
</svg>
